<svg xmlns="http://www.w3.org/2000/svg" viewBox="0 0 256 256">
  <rect width="256" height="256" fill="#1e3a8a"/>
  <g transform="translate(128, 128)">
    <rect x="-3" y="-70" width="6" height="140" fill="#d4af37"/>
    <circle cx="0" cy="-70" r="8" fill="#d4af37"/>
    <line x1="-60" y1="-50" x2="60" y2="-50" stroke="#d4af37" stroke-width="4"/>
    <path d="M -60 -50 L -60 -30 L -80 -30 L -80 -26 L -40 -26 L -40 -30 L -60 -30 Z" fill="#d4af37"/>
    <path d="M 60 -50 L 60 -30 L 40 -30 L 40 -26 L 80 -26 L 80 -30 L 60 -30 Z" fill="#d4af37"/>
    <ellipse cx="-60" cy="-26" rx="20" ry="4" fill="#d4af37"/>
    <ellipse cx="60" cy="-26" rx="20" ry="4" fill="#d4af37"/>
    <path d="M -25 60 L -35 85 L 35 85 L 25 60 Z" fill="#d4af37"/>
    <rect x="-45" y="85" width="90" height="8" fill="#d4af37"/>
  </g>
</svg>